Patient4_TMGait_0pt4_03_right_31_EMG.mot
version=1
nRows=39
nColumns=33
inDegrees=no
endheader
time	1LAddLong	2LGlutMax	3LGlutMed	4LIliopsoas	5LSemiMemb	6LBicFemLong	7LRecFem	8LVastMed	9LVastLat	10LGasMed	11LTibAnt	12lTibPost	13LPeroneusLong	14LSol	15LExtDigLong	16LFlexDigLong	17RAddLong	18RGlutMax	19RGlutMed	20RIliopsoas	21RSemiMemb	22RBicFemLong	23RRecFem	24RVastMed	25RVastLat	26RGasMed	27RTibAnt	28RTibPost	29RPeroneusLong	30RSol	31RExtDigLong	32RFlexDigLong
41.618	-0.00824	-0.086823	0.10208	0.031128	0.004883	0.03479	0.1442	0.011444	-0.3064	-0.005798	-0.000916	-0.030823	0.075378	-0.015717	0.019531	0.11246	0.014343	-0.05188	-0.47928	0.28732	-0.2446	0.065613	-0.022888	-0.061951	0.011292	0.000305	-0.55801	-0.00473	0.11795	0.017548	-0.002289	0.008698
41.619	-0.013885	-0.070496	0.066376	0.010223	0.002747	0.035248	0.08728	0.027618	-0.15533	-0.002289	-0.003967	-0.013275	0.07843	0.053711	0.018616	-0.13001	-0.018768	-0.067444	-0.32318	0.14801	0.13687	0.062408	-0.025177	0.009003	0.022125	-0.003052	-0.41	-0.001831	0.009766	0.041656	-0.001831	0.002899
41.62	-0.013885	-0.06424	0.066681	-0.010834	0.006256	0.016022	0.081482	0.008698	-0.050354	-0.012512	0.002747	-0.005951	0.058289	0.065002	-0.006256	-0.068817	-0.046692	-0.067749	-0.36194	0.069122	0.37125	0.14023	-0.023651	0.085602	0.026855	-0.006714	-0.48431	0.001373	-0.036926	0.046997	-0.003204	-0.000458
41.621	0.001068	-0.067444	0.10941	-0.004578	0.014954	0.006714	0.016937	-0.012512	-0.015564	-0.009155	0.004272	-0.004425	0.053101	-0.016174	-0.002899	-0.015106	-0.029755	-0.082245	-0.53757	0.021057	0.16678	0.16342	-0.007172	0.032959	0.021667	0.000916	-0.32242	-0.002899	-0.076447	0.072784	-0.001373	-0.002289
41.622	-0.001831	-0.06134	0.067902	0.02594	0.013885	-0.000153	-0.011749	-0.014496	-0.014191	0.013123	-0.006714	-0.010834	0.03952	-0.13412	0.007477	-0.016327	-0.012054	-0.071869	-0.28488	-0.01709	0.053558	0.099182	0.054321	-0.017242	-0.002441	0.002747	-0.14725	0.002747	-0.016632	0.022736	0.000458	0.00061
41.623	0.000763	-0.086823	0.071259	0.048065	0.013428	0.014343	0.060272	-0.006561	-0.00885	0.015717	0.003052	0.007172	0.049744	-0.041351	-0.002899	-0.001373	-0.00351	-0.050507	0.5278	-0.032043	-0.03418	0.07431	0.018768	-0.051422	0.003357	0.005188	-0.033875	0.007019	-0.006866	-0.018768	0.000305	-0.000305
41.624	-0.000763	-0.057678	0.07309	0.03952	0.009308	0.015106	0.12924	-0.003662	-0.011749	0.002441	0.012054	0.017395	0.047455	0.076141	0.003357	0.034943	0.020142	-0.056763	1.333	-0.029144	-0.14023	0.063019	0.008698	0.003967	0.024261	0.002441	0.085297	-0.006256	0.22644	0.035095	0.003662	0.003815
41.625	-0.00061	-0.072021	0.019073	0.014191	0.022888	0.006561	0.14771	-0.004578	-0.015259	-0.006714	0.011292	0.005341	0.037384	0.12344	0.007782	-1.3637	0.017242	-0.10239	0.59006	-0.039978	-0.23239	0.07431	0.023956	-0.049896	0.00473	-0.001831	-0.11887	-0.002136	0.43564	0.080719	0.002441	0.006104
41.626	0.007477	-0.066833	-0.044556	-0.010223	0.006866	0.002136	0.10712	-0.001221	0.001526	-0.021515	0.005188	-0.004272	0.017548	0.12436	0.011444	0.26504	0.003052	-0.054169	-0.069733	-0.016479	0.045776	0.11231	0.03479	-0.00946	0.008087	-0.005035	-0.13107	-0.001831	0.20874	0.083923	-0.004425	0.012665
41.627	-0.001984	-0.079803	0.001526	-0.022125	0.012207	-0.001984	-0.006409	-0.001373	0.04837	-0.027161	0.00885	0.006866	0.022125	-0.019989	0.019073	0.75684	-0.01297	-0.024109	-0.64957	-0.021973	0.30228	0.072174	0.007935	-0.002899	0.013123	0.001068	-0.039825	-0.001984	0.041046	-0.058746	-0.002289	0.008392
41.628	0.000916	-0.061646	0.03067	-0.00946	0.012665	0.005646	-0.00061	0.00061	0.042572	-0.039825	0.016785	-0.001984	0.025635	0.097046	0.01358	-0.2327	-0.024109	-0.006104	-0.77286	-0.059357	0.20828	0.032349	0.003815	0.05722	0.017395	0.000305	0.08728	-0.00473	0.079041	-0.071106	-0.002441	0.003357
41.629	-0.005035	-0.040894	0.083771	0.00412	0.018768	0.006866	0.016785	0.002289	0.018463	-0.042725	0.011749	-0.003357	0.03479	0.14236	0.003967	-0.046997	-0.016632	0.069122	-0.32974	-0.076599	0.11398	0.13229	0.000763	0.003052	0.019684	-0.006409	0.19043	-0.002441	0.061188	-0.020599	0	0.007629
41.63	-0.001984	-0.025482	0.10346	-0.001831	0.014191	0.008545	-0.058746	0.010986	-0.035706	-0.056763	0.00351	-0.005341	0.055542	0.067596	-0.005035	0.60944	-0.020447	0.03006	-0.4509	-0.035706	0.094147	0.21851	0.017853	0.017853	0.019531	-0.009918	0.18753	-0.00351	-0.002594	-0.010071	-0.005951	0.01358
41.631	0.003815	-0.010223	0.12466	0.018311	0.010986	-0.013428	-0.10178	0.009766	-0.048218	-0.029144	0.000916	-0.006409	0.03891	-0.11215	-0.005646	0.026398	-0.025787	-0.004578	-0.61569	-0.025177	-0.015564	0.26489	0.03479	0.002899	0.005951	-0.009918	0.12787	-0.003815	-0.03891	-0.036774	0	0.007019
41.632	0.029144	-0.008698	0.10559	0.018311	0.019379	-0.006561	-0.16037	-0.001068	0.027924	-0.019989	0.006561	0.001221	0.039063	-0.04303	-0.009766	-0.032806	-0.009003	-0.018158	-0.28641	-0.011139	-0.067902	0.21927	0.015411	0.005798	0.007324	-0.010681	0.06424	-0.006256	0.15045	-0.033722	-0.000153	0.004272
41.633	-0.05188	-0.088501	-0.004578	0.006104	0.005493	0.001831	-0.10071	0.011597	0.03479	-0.04837	0.000305	-0.002899	0.041962	-0.022278	0.004883	-0.01358	0.009155	-0.057526	0.4274	0.014496	0.010834	0.19608	0.032654	-0.037689	0.005798	-0.017548	0.072784	-0.003357	0.030212	-0.035858	-0.001678	-0.007935
41.634	0.03418	-0.079956	-0.021057	-0.008087	0.014496	-0.004272	-0.021667	0.000153	0.006714	-0.007935	0	-0.018158	0.042267	-0.011902	0.003357	-0.023346	0.053558	-0.11719	0.23209	-0.011139	-0.058289	0.12634	0.003052	-0.066223	-0.002441	-0.018005	0.14603	-0.003815	-0.22385	-0.044861	-0.000305	0.002747
41.635	0.023499	-0.056152	0.028381	-0.021515	0.014648	-0.015106	0.027161	-0.001678	0.02655	0.010376	-0.001221	0.04837	-0.009766	-0.12756	0.006104	-0.00946	0.0914	-0.16357	-0.70145	0.001068	-0.099945	0.081329	0.07843	-0.089569	0.013885	-0.023499	0.12833	-0.003204	-0.1741	-0.044556	0.006409	0.00473
41.636	0.009003	-0.024872	0.070648	-0.00824	0.022278	0.003357	0.053406	-0.011292	0.022736	-0.041809	0.006714	0.065308	-0.092926	-0.019684	0.004578	0.017548	0.076752	-0.12177	-0.94528	-0.002441	-0.1564	0.12955	0.041962	-0.094757	0.022125	-0.022888	0.14618	-0.003357	-0.089722	-0.023193	-0.008087	0.000916
41.637	0.004272	-0.034332	0.058441	0.006866	0.015564	0.000458	0.089569	-0.007782	-0.000153	-0.10071	0.019836	-0.031128	-0.1471	0.19104	0.013123	0.033264	0.047302	-0.066376	-0.39307	0.039215	-0.071716	0.23239	0.049438	-0.048523	0.029144	-0.035553	0.11566	-0.001526	0.099945	-0.047913	-0.003052	0.001526
41.638	0.002899	-0.11017	0.034943	0.007172	0.024719	-0.011292	0.074463	-0.005341	-0.001984	-0.16998	0.006409	-0.077209	-0.094452	0.031738	0.019531	-1.1005	-0.046692	-0.065308	0.61279	0.055237	-0.006104	0.34088	-0.008698	-0.012512	0.039673	-0.033112	-0.01709	0.000763	0.47272	-0.041351	-0.002136	0.00351
41.639	0.008392	-0.080109	0.059662	0.013123	0.016632	-0.018616	0.070648	-0.005798	0.03952	-0.066833	0.017242	-0.064545	-0.008087	-0.34195	-0.00351	0.24796	-0.09552	-0.12329	0.43243	0.029602	0.028381	0.40085	-0.020905	0.059052	0.039368	-0.028381	-0.004883	-0.000763	0.45975	-0.038757	0.003815	-0.010529
41.64	0.002441	-0.061188	0.035553	0.011444	0.011139	-0.005798	0.019989	-0.003967	0.066376	-0.016174	0.012817	0.032959	0.12039	-0.12802	-0.013428	0.33173	-0.070343	-0.1091	0.68954	0.016022	0.010071	0.39246	0.005493	0.10849	0.031128	-0.015869	0.018158	-0.002594	-0.46188	-0.067444	-0.003357	-0.011902
41.641	0.006561	-0.088043	0.025635	0.005646	0.014496	0.011597	0.01709	-0.003204	0.049438	0.10193	0.004272	0.13901	0.16129	0.25299	0.016022	0.10834	-0.024414	-0.15091	0.20462	0.057526	0.19333	0.35553	0.039368	0.049744	0.019226	-0.005493	0.042572	-0.009613	-0.83038	-0.049744	-0.006866	-0.012054
41.642	0.001526	-0.080872	0.020599	0.00824	0.010681	0.002594	-0.007935	-0.004425	0.043488	0.25864	-0.011292	-0.077515	0.18021	0.504	0.03479	0.083466	0.00061	-0.16693	0.032501	0.078888	0.019684	0.30945	0.062408	0.017853	0.009918	0.014038	0.040894	-0.003357	-0.43701	-0.032654	-0.009613	-0.014343
41.643	0.001678	-0.065002	-0.003815	0.019379	0.014496	-0.001526	-0.010529	-0.002136	0.045013	0.11093	0.004425	-0.072937	0.20737	0.25101	0.014191	0.068817	-0.004578	-0.14358	0.08255	0.098877	-0.046539	0.28793	0.092468	0.023804	0.011902	0.036469	-0.046082	-0.00061	0.71426	-0.031891	-0.001678	-0.013428
41.644	0.009003	-0.043793	0.017853	0.008392	0.010376	-0.005341	-0.011749	-0.002136	0.055542	-0.024109	-0.000305	0.059967	0.2005	0.002441	0.004578	0.23941	0.012817	-0.093231	0.1294	0.058746	0.009766	0.28259	0.046692	-0.014496	0.034332	0.050354	-0.066376	-0.001526	0.59692	-0.019226	-0.003662	-0.013428
41.645	-0.003967	-0.02121	0.042877	0.005646	0.013275	-0.000153	-0.00473	-0.003052	0.035095	-0.028839	-0.000763	0.071106	-0.00473	-0.12329	-0.013733	-0.028534	0.069427	-0.072327	0.27344	-0.14572	0.12161	0.2945	0.048981	-0.055847	0.01709	0.055847	-0.032196	-0.007477	0.12283	0.003052	0.001373	-0.0177
41.646	0.005493	-0.020294	0.074005	0.010986	0.009766	-0.011444	-0.019684	0.003967	0.020599	-0.036926	0.000458	0.043182	-0.058594	-0.26108	-0.039825	-0.19699	0.088501	-0.009308	-0.12665	-0.16312	0.10452	0.36499	0.063934	-0.11292	0.014801	0.071869	0.025482	-0.001831	-0.19913	-0.014038	-0.003204	-0.021362
41.647	-0.001373	-0.010986	0.046387	0.009308	0.016937	-0.002747	-0.02182	-0.000916	0.009766	-0.017395	-0.002594	-0.063171	-0.062561	-0.39368	-0.035858	-0.15564	0.064545	-0.054016	-0.32608	-0.0737	-0.25253	0.4422	0.035248	-0.16083	0.01297	0.092316	0.032806	-0.00473	-0.30579	-0.033264	-0.00473	-0.023804
41.648	0.002136	-0.039215	0.054169	0.019684	0.01236	0.005798	-0.057068	0.009613	0.012665	0.003815	0.010834	-0.046387	-0.000916	-0.10117	-0.026245	-0.016937	0.003662	-0.058594	-0.22263	-0.067902	-0.52033	0.58853	0.051575	-0.045624	0.03006	0.10239	0.028381	-0.003204	-0.29251	0.001678	-0.009613	-0.028381
41.649	0.002441	-0.02243	0.022278	0.010223	0.015259	0.005341	-0.059662	-0.002747	0.015869	0.027771	-0.002899	0.16541	0.042725	0.11383	0.015564	0.17105	-0.03952	-0.056915	-0.002899	0.063477	-0.25223	0.68192	0.02533	-0.009918	0.023499	0.10651	0.026398	-0.003357	0.14938	0.00946	-0.002289	-0.040436
41.65	0.005188	-0.034637	-0.020905	0.004578	0.016479	-0.005188	-0.036163	0.004578	0.017853	0.02594	-0.005951	0.065613	0.041046	0.28336	0.010681	0.15854	-0.068054	-0.0914	-0.028839	0.26794	0.13077	0.74478	0.014038	0.1294	0.039368	0.10452	0.030212	-0.002289	0.31693	-0.012207	-0.001678	-0.048981
41.651	0.002289	-0.022888	-0.041046	-0.001526	0.007782	-0.000763	0.086975	0.002747	0.062103	0.013885	-0.000305	-0.094299	-0.009003	0.16129	0.001068	0.00061	-0.090942	-0.033875	-0.10529	0.27557	0.46005	0.78156	-0.003815	0.15182	0.042419	0.10117	0.049744	-0.007172	0.38391	-0.046082	-0.003204	-0.05188
41.652	-0.002747	-0.006714	0.030518	0.009308	0.014038	-0.002136	0.11093	-0.002899	0.056458	-0.017548	0.007477	-0.005798	-0.092468	-0.16953	-0.021515	-0.037079	-0.093842	-0.070496	-0.20569	0.14557	0.22324	0.71381	-0.020599	0.13534	0.031738	0.091248	0.050507	-0.006866	0.17258	-0.023956	-0.001373	-0.047302
41.653	0.00351	-0.02655	-0.013885	0.023193	0.014648	-0.005798	0.059052	0.001526	0.024414	-0.056305	0.00824	0.000153	-0.055695	-0.17273	-0.020142	-0.039368	-0.047302	-0.089722	-0.23224	0.055237	0.013428	0.61813	-0.031891	0.072174	0.031128	0.079498	0.036774	-0.008545	0.087891	-0.011444	-0.00351	-0.050507
41.654	0.001831	-0.017853	-0.019684	0.012054	0.016479	0.000916	0.050507	0.00351	0.02594	-0.032959	-0.008698	0.020752	-0.012207	-0.17273	-0.003967	-0.012817	-0.041962	-0.062408	-0.10269	-0.017853	0.028687	0.61935	-0.024719	0.065918	0.029755	0.067444	0.022125	-0.003662	0.094299	-0.003357	0.000153	-0.05127
41.655	0.003815	-0.027771	0.11368	0.014191	0.007324	0.000153	0.042267	0.005188	0.025482	0.00824	0.00061	-0.010834	-0.005341	-0.13504	0.000153	-0.002289	-0.029144	-0.066528	-0.040283	-0.080261	0.04715	0.58456	-0.037537	0.080719	0.031891	0.058899	0.026093	-0.00824	0.082092	-0.011902	-0.002594	-0.048065
41.656	0.002441	-0.029755	0.1207	0.008698	0.011749	0.009766	0.02655	0.001221	0.034637	0.031738	-0.012512	0.001831	0.069733	-0.17075	0.025635	-0.024109	-0.017548	-0.081024	0.079651	-0.13046	-0.001373	0.55298	-0.024567	0.044403	0.027008	0.047455	0.014954	-0.007324	0.060883	-0.034027	0.003204	-0.041504
